<svg width="30" height="200" viewBox="0 0 30 200" fill="none" xmlns="http://www.w3.org/2000/svg">
<circle cx="1" cy="1" r="1" transform="matrix(-1 0 0 1 6 4)" fill="white" fill-opacity="0.35"/>
<circle cx="1" cy="1" r="1" transform="matrix(-1 0 0 1 16 104)" fill="white" fill-opacity="0.35"/>
<circle cx="1" cy="1" r="1" transform="matrix(-1 0 0 1 6 34)" fill="white" fill-opacity="0.35"/>
<circle cx="1" cy="1" r="1" transform="matrix(-1 0 0 1 6 134)" fill="white" fill-opacity="0.35"/>
<circle cx="1" cy="1" r="1" transform="matrix(-1 0 0 1 16 84)" fill="white" fill-opacity="0.35"/>
<circle cx="1" cy="1" r="1" transform="matrix(-1 0 0 1 6 164)" fill="white" fill-opacity="0.35"/>
<circle cx="1" cy="1" r="1" transform="matrix(-1 0 0 1 16 14)" fill="white" fill-opacity="0.35"/>
<circle cx="1" cy="1" r="1" transform="matrix(-1 0 0 1 16 114)" fill="white" fill-opacity="0.35"/>
<circle cx="1" cy="1" r="1" transform="matrix(-1 0 0 1 26 114)" fill="white" fill-opacity="0.35"/>
<circle cx="1" cy="1" r="1" transform="matrix(-1 0 0 1 16 24)" fill="white" fill-opacity="0.35"/>
<circle cx="1" cy="1" r="1" transform="matrix(-1 0 0 1 6 124)" fill="white" fill-opacity="0.35"/>
<circle cx="1" cy="1" r="1" transform="matrix(-1 0 0 1 16 44)" fill="white" fill-opacity="0.35"/>
<circle cx="1" cy="1" r="1" transform="matrix(-1 0 0 1 16 144)" fill="white" fill-opacity="0.35"/>
<circle cx="1" cy="1" r="1" transform="matrix(-1 0 0 1 6 74)" fill="white" fill-opacity="0.35"/>
<circle cx="1" cy="1" r="1" transform="matrix(-1 0 0 1 6 174)" fill="white" fill-opacity="0.35"/>
<circle cx="1" cy="1" r="1" transform="matrix(-1 0 0 1 6 84)" fill="white" fill-opacity="0.35"/>
<circle cx="1" cy="1" r="1" transform="matrix(-1 0 0 1 6 184)" fill="white" fill-opacity="0.35"/>
<circle cx="1" cy="1" r="1" transform="matrix(-1 0 0 1 26 24)" fill="white" fill-opacity="0.35"/>
<circle cx="1" cy="1" r="1" transform="matrix(-1 0 0 1 16 124)" fill="white" fill-opacity="0.35"/>
<circle cx="1" cy="1" r="1" transform="matrix(-1 0 0 1 6 54)" fill="white" fill-opacity="0.35"/>
<circle cx="1" cy="1" r="1" transform="matrix(-1 0 0 1 16 154)" fill="white" fill-opacity="0.35"/>
<circle cx="1" cy="1" r="1" transform="matrix(-1 0 0 1 26 64)" fill="white" fill-opacity="0.35"/>
<circle cx="1" cy="1" r="1" transform="matrix(-1 0 0 1 26 54)" fill="white" fill-opacity="0.35"/>
<circle cx="1" cy="1" r="1" transform="matrix(-1 0 0 1 26 154)" fill="white" fill-opacity="0.35"/>
<circle cx="1" cy="1" r="1" transform="matrix(-1 0 0 1 26 84)" fill="white" fill-opacity="0.35"/>
<circle cx="1" cy="1" r="1" transform="matrix(-1 0 0 1 26 174)" fill="white" fill-opacity="0.35"/>
<circle cx="1" cy="1" r="1" transform="matrix(-1 0 0 1 26 94)" fill="white" fill-opacity="0.35"/>
<circle cx="1" cy="1" r="1" transform="matrix(-1 0 0 1 26 194)" fill="white" fill-opacity="0.35"/>
</svg>
