<!-- set opacity to 0.5 -->
<svg width="1920" height="1080" viewBox="0 0 1920 1080" fill="none"
	xmlns="http://www.w3.org/2000/svg">
	<g clip-path="url(#clip0_557_151)"
		opacity="0.2">
		<path
			d="M136.701 -1039.94L138.633 -1039.42L-541.985 1500.68L-543.917 1500.17L136.701 -1039.94Z"
			fill="url(#paint0_radial_557_151)" />
		<path d="M237.248 -1013L239.18 -1012.48L-441.438 1527.62L-443.37 1527.11L237.248 -1013Z"
			fill="url(#paint1_radial_557_151)" />
		<path
			d="M337.793 -986.054L339.725 -985.537L-340.893 1554.57L-342.825 1554.05L337.793 -986.054Z"
			fill="url(#paint2_radial_557_151)" />
		<path
			d="M438.34 -959.113L440.272 -958.595L-240.347 1581.51L-242.278 1580.99L438.34 -959.113Z"
			fill="url(#paint3_radial_557_151)" />
		<path d="M540.206 -931.818L542.138 -931.3L-138.48 1608.8L-140.412 1608.28L540.206 -931.818Z"
			fill="url(#paint4_radial_557_151)" />
		<path
			d="M640.751 -904.877L642.683 -904.359L-37.9353 1635.74L-39.8672 1635.23L640.751 -904.877Z"
			fill="url(#paint5_radial_557_151)" />
		<path
			d="M741.297 -877.935L743.229 -877.418L62.6104 1662.68L60.6786 1662.17L741.297 -877.935Z"
			fill="url(#paint6_radial_557_151)" />
		<path
			d="M841.842 -850.995L843.774 -850.477L163.155 1689.63L161.224 1689.11L841.842 -850.995Z"
			fill="url(#paint7_radial_557_151)" />
		<path
			d="M942.388 -824.054L944.32 -823.536L263.701 1716.57L261.769 1716.05L942.388 -824.054Z"
			fill="url(#paint8_radial_557_151)" />
		<path d="M1042.89 -797.163L1044.82 -796.646L364.2 1743.46L362.268 1742.94L1042.89 -797.163Z"
			fill="url(#paint9_radial_557_151)" />
		<path
			d="M1144.76 -769.867L1146.69 -769.349L466.07 1770.75L464.138 1770.24L1144.76 -769.867Z"
			fill="url(#paint10_radial_557_151)" />
		<path d="M1245.3 -742.926L1247.23 -742.408L566.615 1797.69L564.683 1797.18L1245.3 -742.926Z"
			fill="url(#paint11_radial_557_151)" />
		<path
			d="M1345.85 -715.985L1347.78 -715.467L667.161 1824.64L665.229 1824.12L1345.85 -715.985Z"
			fill="url(#paint12_radial_557_151)" />
		<path
			d="M1446.38 -689.053L1448.32 -688.535L767.697 1851.57L765.765 1851.05L1446.38 -689.053Z"
			fill="url(#paint13_radial_557_151)" />
		<path
			d="M1546.93 -662.112L1548.86 -661.594L868.243 1878.51L866.311 1877.99L1546.93 -662.112Z"
			fill="url(#paint14_radial_557_151)" />
		<path d="M1648.8 -634.816L1650.73 -634.298L970.111 1905.8L968.179 1905.29L1648.8 -634.816Z"
			fill="url(#paint15_radial_557_151)" />
		<path
			d="M1749.34 -607.875L1751.27 -607.358L1070.66 1932.74L1068.72 1932.23L1749.34 -607.875Z"
			fill="url(#paint16_radial_557_151)" />
		<path
			d="M1849.89 -580.934L1851.82 -580.416L1171.2 1959.69L1169.27 1959.17L1849.89 -580.934Z"
			fill="url(#paint17_radial_557_151)" />
		<path
			d="M1950.44 -553.992L1952.37 -553.475L1271.75 1986.63L1269.82 1986.11L1950.44 -553.992Z"
			fill="url(#paint18_radial_557_151)" />
		<path
			d="M2050.98 -527.052L2052.91 -526.534L1372.29 2013.57L1370.36 2013.05L2050.98 -527.052Z"
			fill="url(#paint19_radial_557_151)" />
		<path
			d="M2151.53 -500.111L2153.46 -499.593L1472.84 2040.51L1470.91 2039.99L2151.53 -500.111Z"
			fill="url(#paint20_radial_557_151)" />
		<path
			d="M2253.39 -472.815L2255.33 -472.298L1574.71 2067.8L1572.78 2067.29L2253.39 -472.815Z"
			fill="url(#paint21_radial_557_151)" />
		<path
			d="M2353.94 -445.873L2355.87 -445.356L1675.25 2094.75L1673.32 2094.23L2353.94 -445.873Z"
			fill="url(#paint22_radial_557_151)" />
		<path
			d="M2454.49 -418.933L2456.42 -418.415L1775.8 2121.69L1773.87 2121.17L2454.49 -418.933Z"
			fill="url(#paint23_radial_557_151)" />
		<path
			d="M136.701 -1039.94L138.633 -1039.42L-541.985 1500.68L-543.917 1500.17L136.701 -1039.94Z"
			fill="url(#paint24_radial_557_151)" />
		<path d="M237.248 -1013L239.18 -1012.48L-441.438 1527.62L-443.37 1527.11L237.248 -1013Z"
			fill="url(#paint25_radial_557_151)" />
		<path
			d="M337.793 -986.054L339.725 -985.537L-340.893 1554.57L-342.825 1554.05L337.793 -986.054Z"
			fill="url(#paint26_radial_557_151)" />
		<path
			d="M438.34 -959.113L440.272 -958.595L-240.347 1581.51L-242.278 1580.99L438.34 -959.113Z"
			fill="url(#paint27_radial_557_151)" />
		<path d="M540.206 -931.818L542.138 -931.3L-138.48 1608.8L-140.412 1608.28L540.206 -931.818Z"
			fill="url(#paint28_radial_557_151)" />
		<path
			d="M640.751 -904.877L642.683 -904.359L-37.9353 1635.74L-39.8672 1635.23L640.751 -904.877Z"
			fill="url(#paint29_radial_557_151)" />
		<path
			d="M741.297 -877.935L743.229 -877.418L62.6104 1662.68L60.6786 1662.17L741.297 -877.935Z"
			fill="url(#paint30_radial_557_151)" />
		<path
			d="M841.842 -850.995L843.774 -850.477L163.155 1689.63L161.224 1689.11L841.842 -850.995Z"
			fill="url(#paint31_radial_557_151)" />
		<path
			d="M942.388 -824.054L944.32 -823.536L263.701 1716.57L261.769 1716.05L942.388 -824.054Z"
			fill="url(#paint32_radial_557_151)" />
		<path d="M1042.89 -797.163L1044.82 -796.646L364.2 1743.46L362.268 1742.94L1042.89 -797.163Z"
			fill="url(#paint33_radial_557_151)" />
		<path
			d="M1144.76 -769.867L1146.69 -769.349L466.07 1770.75L464.138 1770.24L1144.76 -769.867Z"
			fill="url(#paint34_radial_557_151)" />
		<path d="M1245.3 -742.926L1247.23 -742.408L566.615 1797.69L564.683 1797.18L1245.3 -742.926Z"
			fill="url(#paint35_radial_557_151)" />
		<path
			d="M1345.85 -715.985L1347.78 -715.467L667.161 1824.64L665.229 1824.12L1345.85 -715.985Z"
			fill="url(#paint36_radial_557_151)" />
		<path
			d="M1446.38 -689.053L1448.32 -688.535L767.697 1851.57L765.765 1851.05L1446.38 -689.053Z"
			fill="url(#paint37_radial_557_151)" />
		<path
			d="M1546.93 -662.112L1548.86 -661.594L868.243 1878.51L866.311 1877.99L1546.93 -662.112Z"
			fill="url(#paint38_radial_557_151)" />
		<path d="M1648.8 -634.816L1650.73 -634.298L970.111 1905.8L968.179 1905.29L1648.8 -634.816Z"
			fill="url(#paint39_radial_557_151)" />
		<path
			d="M1749.34 -607.875L1751.27 -607.358L1070.66 1932.74L1068.72 1932.23L1749.34 -607.875Z"
			fill="url(#paint40_radial_557_151)" />
		<path
			d="M1849.89 -580.934L1851.82 -580.416L1171.2 1959.69L1169.27 1959.17L1849.89 -580.934Z"
			fill="url(#paint41_radial_557_151)" />
		<path
			d="M1950.44 -553.992L1952.37 -553.475L1271.75 1986.63L1269.82 1986.11L1950.44 -553.992Z"
			fill="url(#paint42_radial_557_151)" />
		<path
			d="M2050.98 -527.052L2052.91 -526.534L1372.29 2013.57L1370.36 2013.05L2050.98 -527.052Z"
			fill="url(#paint43_radial_557_151)" />
		<path
			d="M2151.53 -500.111L2153.46 -499.593L1472.84 2040.51L1470.91 2039.99L2151.53 -500.111Z"
			fill="url(#paint44_radial_557_151)" />
		<path
			d="M2253.39 -472.815L2255.33 -472.298L1574.71 2067.8L1572.78 2067.29L2253.39 -472.815Z"
			fill="url(#paint45_radial_557_151)" />
		<path
			d="M2353.94 -445.873L2355.87 -445.356L1675.25 2094.75L1673.32 2094.23L2353.94 -445.873Z"
			fill="url(#paint46_radial_557_151)" />
		<path
			d="M2454.49 -418.933L2456.42 -418.415L1775.8 2121.69L1773.87 2121.17L2454.49 -418.933Z"
			fill="url(#paint47_radial_557_151)" />
		<path
			d="M2461.77 19.7903L2461.26 21.7221L-78.8458 -658.896L-78.3282 -660.828L2461.77 19.7903Z"
			fill="url(#paint48_radial_557_151)" />
		<path
			d="M2434.48 121.659L2433.96 123.59L-106.142 -557.028L-105.624 -558.96L2434.48 121.659Z"
			fill="url(#paint49_radial_557_151)" />
		<path
			d="M2407.54 222.205L2407.02 224.137L-133.082 -456.482L-132.564 -458.413L2407.54 222.205Z"
			fill="url(#paint50_radial_557_151)" />
		<path d="M2380.6 322.75L2380.08 324.682L-160.024 -355.936L-159.506 -357.868L2380.6 322.75Z"
			fill="url(#paint51_radial_557_151)" />
		<path
			d="M2353.65 423.296L2353.14 425.228L-186.966 -255.391L-186.448 -257.323L2353.65 423.296Z"
			fill="url(#paint52_radial_557_151)" />
		<path
			d="M2326.71 523.842L2326.2 525.774L-213.906 -154.845L-213.388 -156.776L2326.71 523.842Z"
			fill="url(#paint53_radial_557_151)" />
		<path
			d="M2299.72 624.335L2299.21 626.266L-240.896 -54.3519L-240.378 -56.2838L2299.72 624.335Z"
			fill="url(#paint54_radial_557_151)" />
		<path
			d="M2272.43 726.203L2271.91 728.135L-268.191 47.5166L-267.674 45.5848L2272.43 726.203Z"
			fill="url(#paint55_radial_557_151)" />
		<path
			d="M2245.49 826.749L2244.97 828.681L-295.132 148.063L-294.615 146.131L2245.49 826.749Z"
			fill="url(#paint56_radial_557_151)" />
		<path
			d="M2218.55 927.295L2218.03 929.227L-322.073 248.608L-321.555 246.677L2218.55 927.295Z"
			fill="url(#paint57_radial_557_151)" />
		<path d="M2191.6 1027.84L2191.09 1029.77L-349.015 349.154L-348.497 347.222L2191.6 1027.84Z"
			fill="url(#paint58_radial_557_151)" />
		<path d="M2164.66 1128.39L2164.15 1130.32L-375.956 449.7L-375.438 447.768L2164.66 1128.39Z"
			fill="url(#paint59_radial_557_151)" />
		<path
			d="M2137.37 1230.25L2136.85 1232.19L-403.252 551.568L-402.734 549.636L2137.37 1230.25Z"
			fill="url(#paint60_radial_557_151)" />
		<path d="M2110.43 1330.8L2109.91 1332.73L-430.193 652.114L-429.675 650.182L2110.43 1330.8Z"
			fill="url(#paint61_radial_557_151)" />
		<path d="M2083.49 1431.35L2082.97 1433.28L-457.134 752.66L-456.616 750.728L2083.49 1431.35Z"
			fill="url(#paint62_radial_557_151)" />
		<path
			d="M2056.55 1531.89L2056.03 1533.82L-484.075 853.205L-483.557 851.274L2056.55 1531.89Z"
			fill="url(#paint63_radial_557_151)" />
		<path d="M2029.6 1632.44L2029.09 1634.37L-511.016 953.751L-510.499 951.819L2029.6 1632.44Z"
			fill="url(#paint64_radial_557_151)" />
		<path d="M2002.66 1732.98L2002.14 1734.92L-537.958 1054.3L-537.44 1052.37L2002.66 1732.98Z"
			fill="url(#paint65_radial_557_151)" />
		<path
			d="M2461.77 19.7903L2461.26 21.7221L-78.8458 -658.896L-78.3282 -660.828L2461.77 19.7903Z"
			fill="url(#paint66_radial_557_151)" />
		<path
			d="M2434.48 121.659L2433.96 123.59L-106.142 -557.028L-105.624 -558.96L2434.48 121.659Z"
			fill="url(#paint67_radial_557_151)" />
		<path
			d="M2407.54 222.205L2407.02 224.137L-133.082 -456.482L-132.564 -458.413L2407.54 222.205Z"
			fill="url(#paint68_radial_557_151)" />
		<path d="M2380.6 322.75L2380.08 324.682L-160.024 -355.936L-159.506 -357.868L2380.6 322.75Z"
			fill="url(#paint69_radial_557_151)" />
		<path
			d="M2353.65 423.296L2353.14 425.228L-186.966 -255.391L-186.448 -257.323L2353.65 423.296Z"
			fill="url(#paint70_radial_557_151)" />
		<path
			d="M2326.71 523.842L2326.2 525.774L-213.906 -154.845L-213.388 -156.776L2326.71 523.842Z"
			fill="url(#paint71_radial_557_151)" />
		<path
			d="M2299.72 624.335L2299.21 626.266L-240.896 -54.3519L-240.378 -56.2838L2299.72 624.335Z"
			fill="url(#paint72_radial_557_151)" />
		<path
			d="M2272.43 726.203L2271.91 728.135L-268.191 47.5166L-267.674 45.5848L2272.43 726.203Z"
			fill="url(#paint73_radial_557_151)" />
		<path
			d="M2245.49 826.749L2244.97 828.681L-295.132 148.063L-294.615 146.131L2245.49 826.749Z"
			fill="url(#paint74_radial_557_151)" />
		<path
			d="M2218.55 927.295L2218.03 929.227L-322.073 248.608L-321.555 246.677L2218.55 927.295Z"
			fill="url(#paint75_radial_557_151)" />
		<path d="M2191.6 1027.84L2191.09 1029.77L-349.015 349.154L-348.497 347.222L2191.6 1027.84Z"
			fill="url(#paint76_radial_557_151)" />
		<path d="M2164.66 1128.39L2164.15 1130.32L-375.956 449.7L-375.438 447.768L2164.66 1128.39Z"
			fill="url(#paint77_radial_557_151)" />
		<path
			d="M2137.37 1230.25L2136.85 1232.19L-403.252 551.568L-402.734 549.636L2137.37 1230.25Z"
			fill="url(#paint78_radial_557_151)" />
		<path d="M2110.43 1330.8L2109.91 1332.73L-430.193 652.114L-429.675 650.182L2110.43 1330.8Z"
			fill="url(#paint79_radial_557_151)" />
		<path d="M2083.49 1431.35L2082.97 1433.28L-457.134 752.66L-456.616 750.728L2083.49 1431.35Z"
			fill="url(#paint80_radial_557_151)" />
		<path
			d="M2056.55 1531.89L2056.03 1533.82L-484.075 853.205L-483.557 851.274L2056.55 1531.89Z"
			fill="url(#paint81_radial_557_151)" />
		<path d="M2029.6 1632.44L2029.09 1634.37L-511.016 953.751L-510.499 951.819L2029.6 1632.44Z"
			fill="url(#paint82_radial_557_151)" />
		<path d="M2002.66 1732.98L2002.14 1734.92L-537.958 1054.3L-537.44 1052.37L2002.66 1732.98Z"
			fill="url(#paint83_radial_557_151)" />
		<path
			d="M136.701 -1039.94L138.633 -1039.42L-541.985 1500.68L-543.917 1500.17L136.701 -1039.94ZM237.248 -1013L239.18 -1012.48L-441.438 1527.62L-443.37 1527.11L237.248 -1013ZM337.793 -986.054L339.725 -985.537L-340.893 1554.57L-342.825 1554.05L337.793 -986.054ZM438.34 -959.113L440.272 -958.595L-240.347 1581.51L-242.278 1580.99L438.34 -959.113ZM540.206 -931.818L542.138 -931.3L-138.48 1608.8L-140.412 1608.28L540.206 -931.818ZM640.751 -904.877L642.683 -904.359L-37.9353 1635.74L-39.8672 1635.23L640.751 -904.877ZM741.297 -877.935L743.229 -877.418L62.6104 1662.68L60.6786 1662.17L741.297 -877.935ZM841.842 -850.995L843.774 -850.477L163.155 1689.63L161.224 1689.11L841.842 -850.995ZM942.388 -824.054L944.32 -823.536L263.701 1716.57L261.769 1716.05L942.388 -824.054ZM1042.89 -797.163L1044.82 -796.646L364.2 1743.46L362.268 1742.94L1042.89 -797.163ZM1144.76 -769.867L1146.69 -769.349L466.07 1770.75L464.138 1770.24L1144.76 -769.867ZM1245.3 -742.926L1247.23 -742.408L566.615 1797.69L564.683 1797.18L1245.3 -742.926ZM1345.85 -715.985L1347.78 -715.467L667.161 1824.64L665.229 1824.12L1345.85 -715.985ZM1446.38 -689.053L1448.32 -688.535L767.697 1851.57L765.765 1851.05L1446.38 -689.053ZM1546.93 -662.112L1548.86 -661.594L868.243 1878.51L866.311 1877.99L1546.93 -662.112ZM1648.8 -634.816L1650.73 -634.298L970.111 1905.8L968.179 1905.29L1648.8 -634.816ZM1749.34 -607.875L1751.27 -607.358L1070.66 1932.74L1068.72 1932.23L1749.34 -607.875ZM1849.89 -580.934L1851.82 -580.416L1171.2 1959.69L1169.27 1959.17L1849.89 -580.934ZM1950.44 -553.992L1952.37 -553.475L1271.75 1986.63L1269.82 1986.11L1950.44 -553.992ZM2050.98 -527.052L2052.91 -526.534L1372.29 2013.57L1370.36 2013.05L2050.98 -527.052ZM2151.53 -500.111L2153.46 -499.593L1472.84 2040.51L1470.91 2039.99L2151.53 -500.111ZM2253.39 -472.815L2255.33 -472.298L1574.71 2067.8L1572.78 2067.29L2253.39 -472.815ZM2353.94 -445.873L2355.87 -445.356L1675.25 2094.75L1673.32 2094.23L2353.94 -445.873ZM2454.49 -418.933L2456.42 -418.415L1775.8 2121.69L1773.87 2121.17L2454.49 -418.933ZM2461.77 19.7903L2461.26 21.7221L-78.8458 -658.896L-78.3282 -660.828L2461.77 19.7903ZM2434.48 121.659L2433.96 123.59L-106.142 -557.028L-105.624 -558.96L2434.48 121.659ZM2407.54 222.205L2407.02 224.137L-133.082 -456.482L-132.564 -458.413L2407.54 222.205ZM2380.6 322.75L2380.08 324.682L-160.024 -355.936L-159.506 -357.868L2380.6 322.75ZM2353.65 423.296L2353.14 425.228L-186.966 -255.391L-186.448 -257.323L2353.65 423.296ZM2326.71 523.842L2326.2 525.774L-213.906 -154.845L-213.388 -156.776L2326.71 523.842ZM2299.72 624.335L2299.21 626.266L-240.896 -54.3519L-240.378 -56.2838L2299.72 624.335ZM2272.43 726.203L2271.91 728.135L-268.191 47.5166L-267.674 45.5848L2272.43 726.203ZM2245.49 826.749L2244.97 828.681L-295.132 148.063L-294.615 146.131L2245.49 826.749ZM2218.55 927.295L2218.03 929.227L-322.073 248.608L-321.555 246.677L2218.55 927.295ZM2191.6 1027.84L2191.09 1029.77L-349.015 349.154L-348.497 347.222L2191.6 1027.84ZM2164.66 1128.39L2164.15 1130.32L-375.956 449.7L-375.438 447.768L2164.66 1128.39ZM2137.37 1230.25L2136.85 1232.19L-403.252 551.568L-402.734 549.636L2137.37 1230.25ZM2110.43 1330.8L2109.91 1332.73L-430.193 652.114L-429.675 650.182L2110.43 1330.8ZM2083.49 1431.35L2082.97 1433.28L-457.134 752.66L-456.616 750.728L2083.49 1431.35ZM2056.55 1531.89L2056.03 1533.82L-484.075 853.205L-483.557 851.274L2056.55 1531.89ZM2029.6 1632.44L2029.09 1634.37L-511.016 953.751L-510.499 951.819L2029.6 1632.44ZM2002.66 1732.98L2002.14 1734.92L-537.958 1054.3L-537.44 1052.37L2002.66 1732.98Z"
			stroke="url(#paint84_radial_557_151)" stroke-width="6" />
	</g>
	<defs>
		<radialGradient id="paint0_radial_557_151" cx="0" cy="0" r="1"
			gradientUnits="userSpaceOnUse"
			gradientTransform="translate(957.391 541.534) rotate(180) scale(944.391 532.358)">
			<stop stop-color="white" />
			<stop offset="1" stop-color="white" stop-opacity="0" />
		</radialGradient>
		<radialGradient id="paint1_radial_557_151" cx="0" cy="0" r="1"
			gradientUnits="userSpaceOnUse"
			gradientTransform="translate(957.391 541.534) rotate(180) scale(944.391 532.358)">
			<stop stop-color="white" />
			<stop offset="1" stop-color="white" stop-opacity="0" />
		</radialGradient>
		<radialGradient id="paint2_radial_557_151" cx="0" cy="0" r="1"
			gradientUnits="userSpaceOnUse"
			gradientTransform="translate(957.391 541.534) rotate(180) scale(944.391 532.358)">
			<stop stop-color="white" />
			<stop offset="1" stop-color="white" stop-opacity="0" />
		</radialGradient>
		<radialGradient id="paint3_radial_557_151" cx="0" cy="0" r="1"
			gradientUnits="userSpaceOnUse"
			gradientTransform="translate(957.391 541.534) rotate(180) scale(944.391 532.358)">
			<stop stop-color="white" />
			<stop offset="1" stop-color="white" stop-opacity="0" />
		</radialGradient>
		<radialGradient id="paint4_radial_557_151" cx="0" cy="0" r="1"
			gradientUnits="userSpaceOnUse"
			gradientTransform="translate(957.391 541.534) rotate(180) scale(944.391 532.358)">
			<stop stop-color="white" />
			<stop offset="1" stop-color="white" stop-opacity="0" />
		</radialGradient>
		<radialGradient id="paint5_radial_557_151" cx="0" cy="0" r="1"
			gradientUnits="userSpaceOnUse"
			gradientTransform="translate(957.391 541.534) rotate(180) scale(944.391 532.358)">
			<stop stop-color="white" />
			<stop offset="1" stop-color="white" stop-opacity="0" />
		</radialGradient>
		<radialGradient id="paint6_radial_557_151" cx="0" cy="0" r="1"
			gradientUnits="userSpaceOnUse"
			gradientTransform="translate(957.391 541.534) rotate(180) scale(944.391 532.358)">
			<stop stop-color="white" />
			<stop offset="1" stop-color="white" stop-opacity="0" />
		</radialGradient>
		<radialGradient id="paint7_radial_557_151" cx="0" cy="0" r="1"
			gradientUnits="userSpaceOnUse"
			gradientTransform="translate(957.391 541.534) rotate(180) scale(944.391 532.358)">
			<stop stop-color="white" />
			<stop offset="1" stop-color="white" stop-opacity="0" />
		</radialGradient>
		<radialGradient id="paint8_radial_557_151" cx="0" cy="0" r="1"
			gradientUnits="userSpaceOnUse"
			gradientTransform="translate(957.391 541.534) rotate(180) scale(944.391 532.358)">
			<stop stop-color="white" />
			<stop offset="1" stop-color="white" stop-opacity="0" />
		</radialGradient>
		<radialGradient id="paint9_radial_557_151" cx="0" cy="0" r="1"
			gradientUnits="userSpaceOnUse"
			gradientTransform="translate(957.391 541.534) rotate(180) scale(944.391 532.358)">
			<stop stop-color="white" />
			<stop offset="1" stop-color="white" stop-opacity="0" />
		</radialGradient>
		<radialGradient id="paint10_radial_557_151" cx="0" cy="0" r="1"
			gradientUnits="userSpaceOnUse"
			gradientTransform="translate(957.391 541.534) rotate(180) scale(944.391 532.358)">
			<stop stop-color="white" />
			<stop offset="1" stop-color="white" stop-opacity="0" />
		</radialGradient>
		<radialGradient id="paint11_radial_557_151" cx="0" cy="0" r="1"
			gradientUnits="userSpaceOnUse"
			gradientTransform="translate(957.391 541.534) rotate(180) scale(944.391 532.358)">
			<stop stop-color="white" />
			<stop offset="1" stop-color="white" stop-opacity="0" />
		</radialGradient>
		<radialGradient id="paint12_radial_557_151" cx="0" cy="0" r="1"
			gradientUnits="userSpaceOnUse"
			gradientTransform="translate(957.391 541.534) rotate(180) scale(944.391 532.358)">
			<stop stop-color="white" />
			<stop offset="1" stop-color="white" stop-opacity="0" />
		</radialGradient>
		<radialGradient id="paint13_radial_557_151" cx="0" cy="0" r="1"
			gradientUnits="userSpaceOnUse"
			gradientTransform="translate(957.391 541.534) rotate(180) scale(944.391 532.358)">
			<stop stop-color="white" />
			<stop offset="1" stop-color="white" stop-opacity="0" />
		</radialGradient>
		<radialGradient id="paint14_radial_557_151" cx="0" cy="0" r="1"
			gradientUnits="userSpaceOnUse"
			gradientTransform="translate(957.391 541.534) rotate(180) scale(944.391 532.358)">
			<stop stop-color="white" />
			<stop offset="1" stop-color="white" stop-opacity="0" />
		</radialGradient>
		<radialGradient id="paint15_radial_557_151" cx="0" cy="0" r="1"
			gradientUnits="userSpaceOnUse"
			gradientTransform="translate(957.391 541.534) rotate(180) scale(944.391 532.358)">
			<stop stop-color="white" />
			<stop offset="1" stop-color="white" stop-opacity="0" />
		</radialGradient>
		<radialGradient id="paint16_radial_557_151" cx="0" cy="0" r="1"
			gradientUnits="userSpaceOnUse"
			gradientTransform="translate(957.391 541.534) rotate(180) scale(944.391 532.358)">
			<stop stop-color="white" />
			<stop offset="1" stop-color="white" stop-opacity="0" />
		</radialGradient>
		<radialGradient id="paint17_radial_557_151" cx="0" cy="0" r="1"
			gradientUnits="userSpaceOnUse"
			gradientTransform="translate(957.391 541.534) rotate(180) scale(944.391 532.358)">
			<stop stop-color="white" />
			<stop offset="1" stop-color="white" stop-opacity="0" />
		</radialGradient>
		<radialGradient id="paint18_radial_557_151" cx="0" cy="0" r="1"
			gradientUnits="userSpaceOnUse"
			gradientTransform="translate(957.391 541.534) rotate(180) scale(944.391 532.358)">
			<stop stop-color="white" />
			<stop offset="1" stop-color="white" stop-opacity="0" />
		</radialGradient>
		<radialGradient id="paint19_radial_557_151" cx="0" cy="0" r="1"
			gradientUnits="userSpaceOnUse"
			gradientTransform="translate(957.391 541.534) rotate(180) scale(944.391 532.358)">
			<stop stop-color="white" />
			<stop offset="1" stop-color="white" stop-opacity="0" />
		</radialGradient>
		<radialGradient id="paint20_radial_557_151" cx="0" cy="0" r="1"
			gradientUnits="userSpaceOnUse"
			gradientTransform="translate(957.391 541.534) rotate(180) scale(944.391 532.358)">
			<stop stop-color="white" />
			<stop offset="1" stop-color="white" stop-opacity="0" />
		</radialGradient>
		<radialGradient id="paint21_radial_557_151" cx="0" cy="0" r="1"
			gradientUnits="userSpaceOnUse"
			gradientTransform="translate(957.391 541.534) rotate(180) scale(944.391 532.358)">
			<stop stop-color="white" />
			<stop offset="1" stop-color="white" stop-opacity="0" />
		</radialGradient>
		<radialGradient id="paint22_radial_557_151" cx="0" cy="0" r="1"
			gradientUnits="userSpaceOnUse"
			gradientTransform="translate(957.391 541.534) rotate(180) scale(944.391 532.358)">
			<stop stop-color="white" />
			<stop offset="1" stop-color="white" stop-opacity="0" />
		</radialGradient>
		<radialGradient id="paint23_radial_557_151" cx="0" cy="0" r="1"
			gradientUnits="userSpaceOnUse"
			gradientTransform="translate(957.391 541.534) rotate(180) scale(944.391 532.358)">
			<stop stop-color="white" />
			<stop offset="1" stop-color="white" stop-opacity="0" />
		</radialGradient>
		<radialGradient id="paint24_radial_557_151" cx="0" cy="0" r="1"
			gradientUnits="userSpaceOnUse"
			gradientTransform="translate(957.391 541.534) rotate(180) scale(944.391 532.358)">
			<stop stop-color="white" />
			<stop offset="1" stop-color="white" stop-opacity="0" />
		</radialGradient>
		<radialGradient id="paint25_radial_557_151" cx="0" cy="0" r="1"
			gradientUnits="userSpaceOnUse"
			gradientTransform="translate(957.391 541.534) rotate(180) scale(944.391 532.358)">
			<stop stop-color="white" />
			<stop offset="1" stop-color="white" stop-opacity="0" />
		</radialGradient>
		<radialGradient id="paint26_radial_557_151" cx="0" cy="0" r="1"
			gradientUnits="userSpaceOnUse"
			gradientTransform="translate(957.391 541.534) rotate(180) scale(944.391 532.358)">
			<stop stop-color="white" />
			<stop offset="1" stop-color="white" stop-opacity="0" />
		</radialGradient>
		<radialGradient id="paint27_radial_557_151" cx="0" cy="0" r="1"
			gradientUnits="userSpaceOnUse"
			gradientTransform="translate(957.391 541.534) rotate(180) scale(944.391 532.358)">
			<stop stop-color="white" />
			<stop offset="1" stop-color="white" stop-opacity="0" />
		</radialGradient>
		<radialGradient id="paint28_radial_557_151" cx="0" cy="0" r="1"
			gradientUnits="userSpaceOnUse"
			gradientTransform="translate(957.391 541.534) rotate(180) scale(944.391 532.358)">
			<stop stop-color="white" />
			<stop offset="1" stop-color="white" stop-opacity="0" />
		</radialGradient>
		<radialGradient id="paint29_radial_557_151" cx="0" cy="0" r="1"
			gradientUnits="userSpaceOnUse"
			gradientTransform="translate(957.391 541.534) rotate(180) scale(944.391 532.358)">
			<stop stop-color="white" />
			<stop offset="1" stop-color="white" stop-opacity="0" />
		</radialGradient>
		<radialGradient id="paint30_radial_557_151" cx="0" cy="0" r="1"
			gradientUnits="userSpaceOnUse"
			gradientTransform="translate(957.391 541.534) rotate(180) scale(944.391 532.358)">
			<stop stop-color="white" />
			<stop offset="1" stop-color="white" stop-opacity="0" />
		</radialGradient>
		<radialGradient id="paint31_radial_557_151" cx="0" cy="0" r="1"
			gradientUnits="userSpaceOnUse"
			gradientTransform="translate(957.391 541.534) rotate(180) scale(944.391 532.358)">
			<stop stop-color="white" />
			<stop offset="1" stop-color="white" stop-opacity="0" />
		</radialGradient>
		<radialGradient id="paint32_radial_557_151" cx="0" cy="0" r="1"
			gradientUnits="userSpaceOnUse"
			gradientTransform="translate(957.391 541.534) rotate(180) scale(944.391 532.358)">
			<stop stop-color="white" />
			<stop offset="1" stop-color="white" stop-opacity="0" />
		</radialGradient>
		<radialGradient id="paint33_radial_557_151" cx="0" cy="0" r="1"
			gradientUnits="userSpaceOnUse"
			gradientTransform="translate(957.391 541.534) rotate(180) scale(944.391 532.358)">
			<stop stop-color="white" />
			<stop offset="1" stop-color="white" stop-opacity="0" />
		</radialGradient>
		<radialGradient id="paint34_radial_557_151" cx="0" cy="0" r="1"
			gradientUnits="userSpaceOnUse"
			gradientTransform="translate(957.391 541.534) rotate(180) scale(944.391 532.358)">
			<stop stop-color="white" />
			<stop offset="1" stop-color="white" stop-opacity="0" />
		</radialGradient>
		<radialGradient id="paint35_radial_557_151" cx="0" cy="0" r="1"
			gradientUnits="userSpaceOnUse"
			gradientTransform="translate(957.391 541.534) rotate(180) scale(944.391 532.358)">
			<stop stop-color="white" />
			<stop offset="1" stop-color="white" stop-opacity="0" />
		</radialGradient>
		<radialGradient id="paint36_radial_557_151" cx="0" cy="0" r="1"
			gradientUnits="userSpaceOnUse"
			gradientTransform="translate(957.391 541.534) rotate(180) scale(944.391 532.358)">
			<stop stop-color="white" />
			<stop offset="1" stop-color="white" stop-opacity="0" />
		</radialGradient>
		<radialGradient id="paint37_radial_557_151" cx="0" cy="0" r="1"
			gradientUnits="userSpaceOnUse"
			gradientTransform="translate(957.391 541.534) rotate(180) scale(944.391 532.358)">
			<stop stop-color="white" />
			<stop offset="1" stop-color="white" stop-opacity="0" />
		</radialGradient>
		<radialGradient id="paint38_radial_557_151" cx="0" cy="0" r="1"
			gradientUnits="userSpaceOnUse"
			gradientTransform="translate(957.391 541.534) rotate(180) scale(944.391 532.358)">
			<stop stop-color="white" />
			<stop offset="1" stop-color="white" stop-opacity="0" />
		</radialGradient>
		<radialGradient id="paint39_radial_557_151" cx="0" cy="0" r="1"
			gradientUnits="userSpaceOnUse"
			gradientTransform="translate(957.391 541.534) rotate(180) scale(944.391 532.358)">
			<stop stop-color="white" />
			<stop offset="1" stop-color="white" stop-opacity="0" />
		</radialGradient>
		<radialGradient id="paint40_radial_557_151" cx="0" cy="0" r="1"
			gradientUnits="userSpaceOnUse"
			gradientTransform="translate(957.391 541.534) rotate(180) scale(944.391 532.358)">
			<stop stop-color="white" />
			<stop offset="1" stop-color="white" stop-opacity="0" />
		</radialGradient>
		<radialGradient id="paint41_radial_557_151" cx="0" cy="0" r="1"
			gradientUnits="userSpaceOnUse"
			gradientTransform="translate(957.391 541.534) rotate(180) scale(944.391 532.358)">
			<stop stop-color="white" />
			<stop offset="1" stop-color="white" stop-opacity="0" />
		</radialGradient>
		<radialGradient id="paint42_radial_557_151" cx="0" cy="0" r="1"
			gradientUnits="userSpaceOnUse"
			gradientTransform="translate(957.391 541.534) rotate(180) scale(944.391 532.358)">
			<stop stop-color="white" />
			<stop offset="1" stop-color="white" stop-opacity="0" />
		</radialGradient>
		<radialGradient id="paint43_radial_557_151" cx="0" cy="0" r="1"
			gradientUnits="userSpaceOnUse"
			gradientTransform="translate(957.391 541.534) rotate(180) scale(944.391 532.358)">
			<stop stop-color="white" />
			<stop offset="1" stop-color="white" stop-opacity="0" />
		</radialGradient>
		<radialGradient id="paint44_radial_557_151" cx="0" cy="0" r="1"
			gradientUnits="userSpaceOnUse"
			gradientTransform="translate(957.391 541.534) rotate(180) scale(944.391 532.358)">
			<stop stop-color="white" />
			<stop offset="1" stop-color="white" stop-opacity="0" />
		</radialGradient>
		<radialGradient id="paint45_radial_557_151" cx="0" cy="0" r="1"
			gradientUnits="userSpaceOnUse"
			gradientTransform="translate(957.391 541.534) rotate(180) scale(944.391 532.358)">
			<stop stop-color="white" />
			<stop offset="1" stop-color="white" stop-opacity="0" />
		</radialGradient>
		<radialGradient id="paint46_radial_557_151" cx="0" cy="0" r="1"
			gradientUnits="userSpaceOnUse"
			gradientTransform="translate(957.391 541.534) rotate(180) scale(944.391 532.358)">
			<stop stop-color="white" />
			<stop offset="1" stop-color="white" stop-opacity="0" />
		</radialGradient>
		<radialGradient id="paint47_radial_557_151" cx="0" cy="0" r="1"
			gradientUnits="userSpaceOnUse"
			gradientTransform="translate(957.391 541.534) rotate(180) scale(944.391 532.358)">
			<stop stop-color="white" />
			<stop offset="1" stop-color="white" stop-opacity="0" />
		</radialGradient>
		<radialGradient id="paint48_radial_557_151" cx="0" cy="0" r="1"
			gradientUnits="userSpaceOnUse"
			gradientTransform="translate(957.391 541.534) rotate(180) scale(944.391 532.358)">
			<stop stop-color="white" />
			<stop offset="1" stop-color="white" stop-opacity="0" />
		</radialGradient>
		<radialGradient id="paint49_radial_557_151" cx="0" cy="0" r="1"
			gradientUnits="userSpaceOnUse"
			gradientTransform="translate(957.391 541.534) rotate(180) scale(944.391 532.358)">
			<stop stop-color="white" />
			<stop offset="1" stop-color="white" stop-opacity="0" />
		</radialGradient>
		<radialGradient id="paint50_radial_557_151" cx="0" cy="0" r="1"
			gradientUnits="userSpaceOnUse"
			gradientTransform="translate(957.391 541.534) rotate(180) scale(944.391 532.358)">
			<stop stop-color="white" />
			<stop offset="1" stop-color="white" stop-opacity="0" />
		</radialGradient>
		<radialGradient id="paint51_radial_557_151" cx="0" cy="0" r="1"
			gradientUnits="userSpaceOnUse"
			gradientTransform="translate(957.391 541.534) rotate(180) scale(944.391 532.358)">
			<stop stop-color="white" />
			<stop offset="1" stop-color="white" stop-opacity="0" />
		</radialGradient>
		<radialGradient id="paint52_radial_557_151" cx="0" cy="0" r="1"
			gradientUnits="userSpaceOnUse"
			gradientTransform="translate(957.391 541.534) rotate(180) scale(944.391 532.358)">
			<stop stop-color="white" />
			<stop offset="1" stop-color="white" stop-opacity="0" />
		</radialGradient>
		<radialGradient id="paint53_radial_557_151" cx="0" cy="0" r="1"
			gradientUnits="userSpaceOnUse"
			gradientTransform="translate(957.391 541.534) rotate(180) scale(944.391 532.358)">
			<stop stop-color="white" />
			<stop offset="1" stop-color="white" stop-opacity="0" />
		</radialGradient>
		<radialGradient id="paint54_radial_557_151" cx="0" cy="0" r="1"
			gradientUnits="userSpaceOnUse"
			gradientTransform="translate(957.391 541.534) rotate(180) scale(944.391 532.358)">
			<stop stop-color="white" />
			<stop offset="1" stop-color="white" stop-opacity="0" />
		</radialGradient>
		<radialGradient id="paint55_radial_557_151" cx="0" cy="0" r="1"
			gradientUnits="userSpaceOnUse"
			gradientTransform="translate(957.391 541.534) rotate(180) scale(944.391 532.358)">
			<stop stop-color="white" />
			<stop offset="1" stop-color="white" stop-opacity="0" />
		</radialGradient>
		<radialGradient id="paint56_radial_557_151" cx="0" cy="0" r="1"
			gradientUnits="userSpaceOnUse"
			gradientTransform="translate(957.391 541.534) rotate(180) scale(944.391 532.358)">
			<stop stop-color="white" />
			<stop offset="1" stop-color="white" stop-opacity="0" />
		</radialGradient>
		<radialGradient id="paint57_radial_557_151" cx="0" cy="0" r="1"
			gradientUnits="userSpaceOnUse"
			gradientTransform="translate(957.391 541.534) rotate(180) scale(944.391 532.358)">
			<stop stop-color="white" />
			<stop offset="1" stop-color="white" stop-opacity="0" />
		</radialGradient>
		<radialGradient id="paint58_radial_557_151" cx="0" cy="0" r="1"
			gradientUnits="userSpaceOnUse"
			gradientTransform="translate(957.391 541.534) rotate(180) scale(944.391 532.358)">
			<stop stop-color="white" />
			<stop offset="1" stop-color="white" stop-opacity="0" />
		</radialGradient>
		<radialGradient id="paint59_radial_557_151" cx="0" cy="0" r="1"
			gradientUnits="userSpaceOnUse"
			gradientTransform="translate(957.391 541.534) rotate(180) scale(944.391 532.358)">
			<stop stop-color="white" />
			<stop offset="1" stop-color="white" stop-opacity="0" />
		</radialGradient>
		<radialGradient id="paint60_radial_557_151" cx="0" cy="0" r="1"
			gradientUnits="userSpaceOnUse"
			gradientTransform="translate(957.391 541.534) rotate(180) scale(944.391 532.358)">
			<stop stop-color="white" />
			<stop offset="1" stop-color="white" stop-opacity="0" />
		</radialGradient>
		<radialGradient id="paint61_radial_557_151" cx="0" cy="0" r="1"
			gradientUnits="userSpaceOnUse"
			gradientTransform="translate(957.391 541.534) rotate(180) scale(944.391 532.358)">
			<stop stop-color="white" />
			<stop offset="1" stop-color="white" stop-opacity="0" />
		</radialGradient>
		<radialGradient id="paint62_radial_557_151" cx="0" cy="0" r="1"
			gradientUnits="userSpaceOnUse"
			gradientTransform="translate(957.391 541.534) rotate(180) scale(944.391 532.358)">
			<stop stop-color="white" />
			<stop offset="1" stop-color="white" stop-opacity="0" />
		</radialGradient>
		<radialGradient id="paint63_radial_557_151" cx="0" cy="0" r="1"
			gradientUnits="userSpaceOnUse"
			gradientTransform="translate(957.391 541.534) rotate(180) scale(944.391 532.358)">
			<stop stop-color="white" />
			<stop offset="1" stop-color="white" stop-opacity="0" />
		</radialGradient>
		<radialGradient id="paint64_radial_557_151" cx="0" cy="0" r="1"
			gradientUnits="userSpaceOnUse"
			gradientTransform="translate(957.391 541.534) rotate(180) scale(944.391 532.358)">
			<stop stop-color="white" />
			<stop offset="1" stop-color="white" stop-opacity="0" />
		</radialGradient>
		<radialGradient id="paint65_radial_557_151" cx="0" cy="0" r="1"
			gradientUnits="userSpaceOnUse"
			gradientTransform="translate(957.391 541.534) rotate(180) scale(944.391 532.358)">
			<stop stop-color="white" />
			<stop offset="1" stop-color="white" stop-opacity="0" />
		</radialGradient>
		<radialGradient id="paint66_radial_557_151" cx="0" cy="0" r="1"
			gradientUnits="userSpaceOnUse"
			gradientTransform="translate(957.391 541.534) rotate(180) scale(944.391 532.358)">
			<stop stop-color="white" />
			<stop offset="1" stop-color="white" stop-opacity="0" />
		</radialGradient>
		<radialGradient id="paint67_radial_557_151" cx="0" cy="0" r="1"
			gradientUnits="userSpaceOnUse"
			gradientTransform="translate(957.391 541.534) rotate(180) scale(944.391 532.358)">
			<stop stop-color="white" />
			<stop offset="1" stop-color="white" stop-opacity="0" />
		</radialGradient>
		<radialGradient id="paint68_radial_557_151" cx="0" cy="0" r="1"
			gradientUnits="userSpaceOnUse"
			gradientTransform="translate(957.391 541.534) rotate(180) scale(944.391 532.358)">
			<stop stop-color="white" />
			<stop offset="1" stop-color="white" stop-opacity="0" />
		</radialGradient>
		<radialGradient id="paint69_radial_557_151" cx="0" cy="0" r="1"
			gradientUnits="userSpaceOnUse"
			gradientTransform="translate(957.391 541.534) rotate(180) scale(944.391 532.358)">
			<stop stop-color="white" />
			<stop offset="1" stop-color="white" stop-opacity="0" />
		</radialGradient>
		<radialGradient id="paint70_radial_557_151" cx="0" cy="0" r="1"
			gradientUnits="userSpaceOnUse"
			gradientTransform="translate(957.391 541.534) rotate(180) scale(944.391 532.358)">
			<stop stop-color="white" />
			<stop offset="1" stop-color="white" stop-opacity="0" />
		</radialGradient>
		<radialGradient id="paint71_radial_557_151" cx="0" cy="0" r="1"
			gradientUnits="userSpaceOnUse"
			gradientTransform="translate(957.391 541.534) rotate(180) scale(944.391 532.358)">
			<stop stop-color="white" />
			<stop offset="1" stop-color="white" stop-opacity="0" />
		</radialGradient>
		<radialGradient id="paint72_radial_557_151" cx="0" cy="0" r="1"
			gradientUnits="userSpaceOnUse"
			gradientTransform="translate(957.391 541.534) rotate(180) scale(944.391 532.358)">
			<stop stop-color="white" />
			<stop offset="1" stop-color="white" stop-opacity="0" />
		</radialGradient>
		<radialGradient id="paint73_radial_557_151" cx="0" cy="0" r="1"
			gradientUnits="userSpaceOnUse"
			gradientTransform="translate(957.391 541.534) rotate(180) scale(944.391 532.358)">
			<stop stop-color="white" />
			<stop offset="1" stop-color="white" stop-opacity="0" />
		</radialGradient>
		<radialGradient id="paint74_radial_557_151" cx="0" cy="0" r="1"
			gradientUnits="userSpaceOnUse"
			gradientTransform="translate(957.391 541.534) rotate(180) scale(944.391 532.358)">
			<stop stop-color="white" />
			<stop offset="1" stop-color="white" stop-opacity="0" />
		</radialGradient>
		<radialGradient id="paint75_radial_557_151" cx="0" cy="0" r="1"
			gradientUnits="userSpaceOnUse"
			gradientTransform="translate(957.391 541.534) rotate(180) scale(944.391 532.358)">
			<stop stop-color="white" />
			<stop offset="1" stop-color="white" stop-opacity="0" />
		</radialGradient>
		<radialGradient id="paint76_radial_557_151" cx="0" cy="0" r="1"
			gradientUnits="userSpaceOnUse"
			gradientTransform="translate(957.391 541.534) rotate(180) scale(944.391 532.358)">
			<stop stop-color="white" />
			<stop offset="1" stop-color="white" stop-opacity="0" />
		</radialGradient>
		<radialGradient id="paint77_radial_557_151" cx="0" cy="0" r="1"
			gradientUnits="userSpaceOnUse"
			gradientTransform="translate(957.391 541.534) rotate(180) scale(944.391 532.358)">
			<stop stop-color="white" />
			<stop offset="1" stop-color="white" stop-opacity="0" />
		</radialGradient>
		<radialGradient id="paint78_radial_557_151" cx="0" cy="0" r="1"
			gradientUnits="userSpaceOnUse"
			gradientTransform="translate(957.391 541.534) rotate(180) scale(944.391 532.358)">
			<stop stop-color="white" />
			<stop offset="1" stop-color="white" stop-opacity="0" />
		</radialGradient>
		<radialGradient id="paint79_radial_557_151" cx="0" cy="0" r="1"
			gradientUnits="userSpaceOnUse"
			gradientTransform="translate(957.391 541.534) rotate(180) scale(944.391 532.358)">
			<stop stop-color="white" />
			<stop offset="1" stop-color="white" stop-opacity="0" />
		</radialGradient>
		<radialGradient id="paint80_radial_557_151" cx="0" cy="0" r="1"
			gradientUnits="userSpaceOnUse"
			gradientTransform="translate(957.391 541.534) rotate(180) scale(944.391 532.358)">
			<stop stop-color="white" />
			<stop offset="1" stop-color="white" stop-opacity="0" />
		</radialGradient>
		<radialGradient id="paint81_radial_557_151" cx="0" cy="0" r="1"
			gradientUnits="userSpaceOnUse"
			gradientTransform="translate(957.391 541.534) rotate(180) scale(944.391 532.358)">
			<stop stop-color="white" />
			<stop offset="1" stop-color="white" stop-opacity="0" />
		</radialGradient>
		<radialGradient id="paint82_radial_557_151" cx="0" cy="0" r="1"
			gradientUnits="userSpaceOnUse"
			gradientTransform="translate(957.391 541.534) rotate(180) scale(944.391 532.358)">
			<stop stop-color="white" />
			<stop offset="1" stop-color="white" stop-opacity="0" />
		</radialGradient>
		<radialGradient id="paint83_radial_557_151" cx="0" cy="0" r="1"
			gradientUnits="userSpaceOnUse"
			gradientTransform="translate(957.391 541.534) rotate(180) scale(944.391 532.358)">
			<stop stop-color="white" />
			<stop offset="1" stop-color="white" stop-opacity="0" />
		</radialGradient>
		<clipPath id="clip0_557_151">
			<rect width="1920" height="1080" fill="white" />
		</clipPath>
	</defs>
</svg>